<mxfile host="Electron" modified="2023-04-17T14:29:37.860Z" agent="Mozilla/5.0 (X11; Linux x86_64) AppleWebKit/537.36 (KHTML, like Gecko) draw.io/21.1.2 Chrome/106.0.5249.199 Electron/21.4.3 Safari/537.36" etag="thStqM3HQF8KQ5KXW7K7" version="21.1.2" type="device" pages="4">
  <diagram name="level-1" id="DBE48RpXtx8JnoEt3ekA">
    <mxGraphModel dx="699" dy="867" grid="1" gridSize="10" guides="1" tooltips="1" connect="1" arrows="1" fold="1" page="1" pageScale="1" pageWidth="850" pageHeight="1100" math="0" shadow="0">
      <root>
        <mxCell id="0" />
        <mxCell id="1" parent="0" />
        <mxCell id="5yIttXtTu1TwYloN6E0H-1" value="Basys3 FPGA&lt;br&gt;PPU" style="rounded=0;whiteSpace=wrap;html=1;spacingLeft=-50;spacingRight=-50;spacing=0;labelPosition=center;verticalLabelPosition=bottom;align=center;verticalAlign=top;" parent="1" vertex="1">
          <mxGeometry x="200" y="70" width="160" height="130" as="geometry" />
        </mxCell>
        <mxCell id="5yIttXtTu1TwYloN6E0H-2" value="Display output&lt;br&gt;(VGA)" style="rounded=0;whiteSpace=wrap;html=1;spacingLeft=-50;spacingRight=-50;spacing=0;labelPosition=center;verticalLabelPosition=bottom;align=center;verticalAlign=top;" parent="1" vertex="1">
          <mxGeometry x="440" y="70" width="80" height="130" as="geometry" />
        </mxCell>
        <mxCell id="velpMuO1yKDRFmeNbPdJ-18" style="edgeStyle=orthogonalEdgeStyle;rounded=0;orthogonalLoop=1;jettySize=auto;html=1;endSize=6;strokeWidth=1;" parent="1" source="5yIttXtTu1TwYloN6E0H-3" target="velpMuO1yKDRFmeNbPdJ-9" edge="1">
          <mxGeometry relative="1" as="geometry">
            <Array as="points">
              <mxPoint x="190" y="85" />
              <mxPoint x="190" y="85" />
            </Array>
          </mxGeometry>
        </mxCell>
        <mxCell id="KLAVmYYYXKE9ixAzbo6W-3" style="edgeStyle=orthogonalEdgeStyle;rounded=0;sketch=0;orthogonalLoop=1;jettySize=auto;html=1;shadow=0;startArrow=none;startFill=0;" parent="1" source="5yIttXtTu1TwYloN6E0H-3" target="KLAVmYYYXKE9ixAzbo6W-2" edge="1">
          <mxGeometry relative="1" as="geometry">
            <Array as="points">
              <mxPoint x="170" y="145" />
              <mxPoint x="170" y="145" />
            </Array>
          </mxGeometry>
        </mxCell>
        <mxCell id="5yIttXtTu1TwYloN6E0H-3" value="STM32F091RC&lt;br&gt;CPU" style="rounded=0;whiteSpace=wrap;html=1;spacingLeft=-50;spacingRight=-50;spacing=0;labelPosition=center;verticalLabelPosition=bottom;align=center;verticalAlign=top;" parent="1" vertex="1">
          <mxGeometry x="79.97" y="70" width="80.03" height="130" as="geometry" />
        </mxCell>
        <mxCell id="5yIttXtTu1TwYloN6E0H-18" value="" style="endArrow=classic;html=1;rounded=0;edgeStyle=orthogonalEdgeStyle;elbow=vertical;align=left;shape=flexArrow;width=4;startWidth=6;endWidth=6;endSize=2;startSize=3;" parent="1" source="5yIttXtTu1TwYloN6E0H-3" target="velpMuO1yKDRFmeNbPdJ-13" edge="1">
          <mxGeometry x="1" width="50" height="50" relative="1" as="geometry">
            <mxPoint x="150" y="410" as="sourcePoint" />
            <mxPoint x="260" y="430" as="targetPoint" />
            <Array as="points">
              <mxPoint x="180" y="185" />
              <mxPoint x="180" y="185" />
            </Array>
            <mxPoint as="offset" />
          </mxGeometry>
        </mxCell>
        <mxCell id="velpMuO1yKDRFmeNbPdJ-19" style="edgeStyle=orthogonalEdgeStyle;rounded=0;orthogonalLoop=1;jettySize=auto;html=1;endSize=2;" parent="1" source="velpMuO1yKDRFmeNbPdJ-6" target="5yIttXtTu1TwYloN6E0H-2" edge="1">
          <mxGeometry relative="1" as="geometry">
            <Array as="points" />
            <mxPoint x="370" y="140" as="sourcePoint" />
          </mxGeometry>
        </mxCell>
        <mxCell id="velpMuO1yKDRFmeNbPdJ-24" style="edgeStyle=orthogonalEdgeStyle;rounded=0;orthogonalLoop=1;jettySize=auto;html=1;entryX=0;entryY=0.5;entryDx=0;entryDy=0;endSize=6;exitX=0;exitY=0;exitDx=0;exitDy=0;strokeWidth=1;" parent="1" source="71HMl0jUqLA2WZ6qU7Z_-3" target="velpMuO1yKDRFmeNbPdJ-4" edge="1">
          <mxGeometry relative="1" as="geometry">
            <Array as="points">
              <mxPoint x="380" y="85" />
              <mxPoint x="380" y="60" />
              <mxPoint x="60" y="60" />
              <mxPoint x="60" y="85" />
            </Array>
          </mxGeometry>
        </mxCell>
        <mxCell id="velpMuO1yKDRFmeNbPdJ-20" style="edgeStyle=orthogonalEdgeStyle;rounded=0;orthogonalLoop=1;jettySize=auto;html=1;endSize=2;" parent="1" source="velpMuO1yKDRFmeNbPdJ-8" target="5yIttXtTu1TwYloN6E0H-2" edge="1">
          <mxGeometry relative="1" as="geometry">
            <Array as="points">
              <mxPoint x="420" y="145" />
              <mxPoint x="420" y="145" />
            </Array>
          </mxGeometry>
        </mxCell>
        <mxCell id="velpMuO1yKDRFmeNbPdJ-25" style="edgeStyle=orthogonalEdgeStyle;rounded=0;orthogonalLoop=1;jettySize=auto;html=1;entryX=0;entryY=0.5;entryDx=0;entryDy=0;endSize=6;exitX=0;exitY=0;exitDx=0;exitDy=0;strokeWidth=1;" parent="1" source="71HMl0jUqLA2WZ6qU7Z_-4" target="velpMuO1yKDRFmeNbPdJ-5" edge="1">
          <mxGeometry relative="1" as="geometry">
            <Array as="points">
              <mxPoint x="390" y="95" />
              <mxPoint x="390" y="50" />
              <mxPoint x="50" y="50" />
              <mxPoint x="50" y="95" />
            </Array>
          </mxGeometry>
        </mxCell>
        <mxCell id="velpMuO1yKDRFmeNbPdJ-9" value="RESET" style="text;html=1;strokeColor=none;fillColor=none;align=left;verticalAlign=middle;whiteSpace=wrap;rounded=0;spacing=0;spacingRight=-50;spacingLeft=2;" parent="1" vertex="1">
          <mxGeometry x="200" y="80" height="10" as="geometry" />
        </mxCell>
        <mxCell id="velpMuO1yKDRFmeNbPdJ-22" style="edgeStyle=orthogonalEdgeStyle;rounded=0;orthogonalLoop=1;jettySize=auto;html=1;endSize=2;" parent="1" source="velpMuO1yKDRFmeNbPdJ-10" target="5yIttXtTu1TwYloN6E0H-2" edge="1">
          <mxGeometry relative="1" as="geometry">
            <Array as="points">
              <mxPoint x="380" y="175" />
              <mxPoint x="380" y="175" />
            </Array>
          </mxGeometry>
        </mxCell>
        <mxCell id="velpMuO1yKDRFmeNbPdJ-11" value="VRAM-ADDR" style="text;html=1;strokeColor=none;fillColor=none;align=left;verticalAlign=middle;whiteSpace=wrap;rounded=0;spacing=0;spacingRight=-100;spacingLeft=2;" parent="1" vertex="1">
          <mxGeometry x="200" y="160" height="10" as="geometry" />
        </mxCell>
        <mxCell id="velpMuO1yKDRFmeNbPdJ-23" style="edgeStyle=orthogonalEdgeStyle;rounded=0;orthogonalLoop=1;jettySize=auto;html=1;endSize=2;" parent="1" source="velpMuO1yKDRFmeNbPdJ-12" target="5yIttXtTu1TwYloN6E0H-2" edge="1">
          <mxGeometry relative="1" as="geometry">
            <Array as="points">
              <mxPoint x="380" y="185" />
              <mxPoint x="380" y="185" />
            </Array>
          </mxGeometry>
        </mxCell>
        <mxCell id="velpMuO1yKDRFmeNbPdJ-13" value="VRAM-DATA" style="text;html=1;strokeColor=none;fillColor=none;align=left;verticalAlign=middle;whiteSpace=wrap;rounded=0;spacing=0;spacingRight=-100;spacingLeft=2;" parent="1" vertex="1">
          <mxGeometry x="200" y="180" height="10" as="geometry" />
        </mxCell>
        <mxCell id="velpMuO1yKDRFmeNbPdJ-21" style="edgeStyle=orthogonalEdgeStyle;rounded=0;orthogonalLoop=1;jettySize=auto;html=1;endSize=2;" parent="1" source="velpMuO1yKDRFmeNbPdJ-14" target="5yIttXtTu1TwYloN6E0H-2" edge="1">
          <mxGeometry relative="1" as="geometry">
            <Array as="points">
              <mxPoint x="380" y="165" />
              <mxPoint x="380" y="165" />
            </Array>
          </mxGeometry>
        </mxCell>
        <mxCell id="velpMuO1yKDRFmeNbPdJ-15" value="" style="endArrow=classic;html=1;rounded=0;edgeStyle=orthogonalEdgeStyle;elbow=vertical;align=left;shape=flexArrow;width=4;startWidth=6;endWidth=6;endSize=2;startSize=3;" parent="1" source="5yIttXtTu1TwYloN6E0H-3" target="velpMuO1yKDRFmeNbPdJ-11" edge="1">
          <mxGeometry x="1" width="50" height="50" relative="1" as="geometry">
            <mxPoint x="170.00000000000006" y="145.00000000000006" as="sourcePoint" />
            <mxPoint x="210.00000000000006" y="145.00000000000006" as="targetPoint" />
            <Array as="points">
              <mxPoint x="180" y="165" />
              <mxPoint x="180" y="165" />
            </Array>
            <mxPoint as="offset" />
          </mxGeometry>
        </mxCell>
        <mxCell id="KLAVmYYYXKE9ixAzbo6W-2" value="VRAM-WEN" style="text;html=1;strokeColor=none;fillColor=none;align=left;verticalAlign=middle;whiteSpace=wrap;rounded=0;spacing=0;spacingRight=-100;spacingLeft=2;" parent="1" vertex="1">
          <mxGeometry x="200" y="140" height="10" as="geometry" />
        </mxCell>
        <mxCell id="lNlDgj40sudh8BmJfRRg-1" value="" style="group" parent="1" vertex="1" connectable="0">
          <mxGeometry x="360" y="160" height="30" as="geometry" />
        </mxCell>
        <mxCell id="velpMuO1yKDRFmeNbPdJ-10" value="G" style="text;html=1;strokeColor=none;fillColor=none;align=right;verticalAlign=middle;whiteSpace=wrap;rounded=0;spacing=0;spacingRight=2;" parent="lNlDgj40sudh8BmJfRRg-1" vertex="1">
          <mxGeometry y="10" height="10" as="geometry" />
        </mxCell>
        <mxCell id="velpMuO1yKDRFmeNbPdJ-12" value="B" style="text;html=1;strokeColor=none;fillColor=none;align=right;verticalAlign=middle;whiteSpace=wrap;rounded=0;spacing=0;spacingRight=2;" parent="lNlDgj40sudh8BmJfRRg-1" vertex="1">
          <mxGeometry y="20" height="10" as="geometry" />
        </mxCell>
        <mxCell id="velpMuO1yKDRFmeNbPdJ-14" value="R" style="text;html=1;strokeColor=none;fillColor=none;align=right;verticalAlign=middle;whiteSpace=wrap;rounded=0;spacing=0;spacingRight=2;" parent="lNlDgj40sudh8BmJfRRg-1" vertex="1">
          <mxGeometry height="10" as="geometry" />
        </mxCell>
        <mxCell id="71HMl0jUqLA2WZ6qU7Z_-1" value="" style="group" parent="1" vertex="1" connectable="0">
          <mxGeometry x="360" y="130" height="20" as="geometry" />
        </mxCell>
        <mxCell id="velpMuO1yKDRFmeNbPdJ-6" value="NVSYNC" style="text;html=1;strokeColor=none;fillColor=none;align=right;verticalAlign=middle;whiteSpace=wrap;rounded=0;spacing=0;spacingRight=2;" parent="71HMl0jUqLA2WZ6qU7Z_-1" vertex="1">
          <mxGeometry height="10" as="geometry" />
        </mxCell>
        <mxCell id="velpMuO1yKDRFmeNbPdJ-8" value="NHSYNC" style="text;html=1;strokeColor=none;fillColor=none;align=right;verticalAlign=middle;whiteSpace=wrap;rounded=0;spacing=0;spacingRight=2;" parent="71HMl0jUqLA2WZ6qU7Z_-1" vertex="1">
          <mxGeometry y="10" height="10" as="geometry" />
        </mxCell>
        <mxCell id="71HMl0jUqLA2WZ6qU7Z_-2" value="" style="group" parent="1" vertex="1" connectable="0">
          <mxGeometry x="360" y="80" height="20" as="geometry" />
        </mxCell>
        <mxCell id="71HMl0jUqLA2WZ6qU7Z_-3" value="TVSYNC" style="text;html=1;strokeColor=none;fillColor=none;align=right;verticalAlign=middle;whiteSpace=wrap;rounded=0;spacing=0;spacingRight=2;" parent="71HMl0jUqLA2WZ6qU7Z_-2" vertex="1">
          <mxGeometry height="10" as="geometry" />
        </mxCell>
        <mxCell id="71HMl0jUqLA2WZ6qU7Z_-4" value="THSYNC" style="text;html=1;strokeColor=none;fillColor=none;align=right;verticalAlign=middle;whiteSpace=wrap;rounded=0;spacing=0;spacingRight=2;" parent="71HMl0jUqLA2WZ6qU7Z_-2" vertex="1">
          <mxGeometry y="10" height="10" as="geometry" />
        </mxCell>
        <mxCell id="yYbuRtbbAqzOlN9-CBbU-1" value="" style="group" parent="1" vertex="1" connectable="0">
          <mxGeometry x="360" y="100" height="20" as="geometry" />
        </mxCell>
        <mxCell id="yYbuRtbbAqzOlN9-CBbU-2" value="TVBLANK" style="text;html=1;strokeColor=none;fillColor=none;align=right;verticalAlign=middle;whiteSpace=wrap;rounded=0;spacing=0;spacingRight=2;" parent="yYbuRtbbAqzOlN9-CBbU-1" vertex="1">
          <mxGeometry height="10" as="geometry" />
        </mxCell>
        <mxCell id="yYbuRtbbAqzOlN9-CBbU-3" value="THBLANK" style="text;html=1;strokeColor=none;fillColor=none;align=right;verticalAlign=middle;whiteSpace=wrap;rounded=0;spacing=0;spacingRight=2;" parent="yYbuRtbbAqzOlN9-CBbU-1" vertex="1">
          <mxGeometry y="10" height="10" as="geometry" />
        </mxCell>
        <mxCell id="yYbuRtbbAqzOlN9-CBbU-4" value="HBLANK" style="text;html=1;strokeColor=none;fillColor=none;align=left;verticalAlign=middle;whiteSpace=wrap;rounded=0;spacing=0;spacingRight=0;spacingLeft=2;" parent="1" vertex="1">
          <mxGeometry x="79.97" y="120" width="0.03" height="10" as="geometry" />
        </mxCell>
        <mxCell id="yYbuRtbbAqzOlN9-CBbU-5" value="VBLANK" style="text;html=1;strokeColor=none;fillColor=none;align=left;verticalAlign=middle;whiteSpace=wrap;rounded=0;spacing=0;spacingRight=0;spacingLeft=2;" parent="1" vertex="1">
          <mxGeometry x="79.97" y="110" width="0.03" height="10" as="geometry" />
        </mxCell>
        <mxCell id="yYbuRtbbAqzOlN9-CBbU-6" value="" style="group" parent="1" vertex="1" connectable="0">
          <mxGeometry x="79.97" y="80" width="0.030000000000001137" height="20" as="geometry" />
        </mxCell>
        <mxCell id="velpMuO1yKDRFmeNbPdJ-4" value="VSYNC" style="text;html=1;strokeColor=none;fillColor=none;align=left;verticalAlign=middle;whiteSpace=wrap;rounded=0;spacing=0;spacingRight=0;spacingLeft=2;" parent="yYbuRtbbAqzOlN9-CBbU-6" vertex="1">
          <mxGeometry width="0.03" height="10" as="geometry" />
        </mxCell>
        <mxCell id="velpMuO1yKDRFmeNbPdJ-5" value="HSYNC" style="text;html=1;strokeColor=none;fillColor=none;align=left;verticalAlign=middle;whiteSpace=wrap;rounded=0;spacing=0;spacingRight=0;spacingLeft=2;" parent="yYbuRtbbAqzOlN9-CBbU-6" vertex="1">
          <mxGeometry y="10" width="0.03" height="10" as="geometry" />
        </mxCell>
        <mxCell id="yYbuRtbbAqzOlN9-CBbU-9" style="edgeStyle=orthogonalEdgeStyle;rounded=0;orthogonalLoop=1;jettySize=auto;html=1;entryX=0;entryY=0.5;entryDx=0;entryDy=0;" parent="1" source="yYbuRtbbAqzOlN9-CBbU-2" target="yYbuRtbbAqzOlN9-CBbU-5" edge="1">
          <mxGeometry relative="1" as="geometry">
            <Array as="points">
              <mxPoint x="400" y="105" />
              <mxPoint x="400" y="40" />
              <mxPoint x="40" y="40" />
              <mxPoint x="40" y="115" />
            </Array>
          </mxGeometry>
        </mxCell>
        <mxCell id="yYbuRtbbAqzOlN9-CBbU-10" style="edgeStyle=orthogonalEdgeStyle;rounded=0;orthogonalLoop=1;jettySize=auto;html=1;entryX=0;entryY=0.5;entryDx=0;entryDy=0;strokeWidth=1;endSize=6;" parent="1" source="yYbuRtbbAqzOlN9-CBbU-3" target="yYbuRtbbAqzOlN9-CBbU-4" edge="1">
          <mxGeometry relative="1" as="geometry">
            <Array as="points">
              <mxPoint x="410" y="115" />
              <mxPoint x="410" y="30" />
              <mxPoint x="30" y="30" />
              <mxPoint x="30" y="125" />
            </Array>
          </mxGeometry>
        </mxCell>
      </root>
    </mxGraphModel>
  </diagram>
  <diagram id="MdQQJuunD4ehtDpxKxax" name="level-2">
    <mxGraphModel dx="699" dy="901" grid="1" gridSize="10" guides="1" tooltips="1" connect="1" arrows="1" fold="1" page="1" pageScale="1" pageWidth="850" pageHeight="1100" math="0" shadow="0">
      <root>
        <mxCell id="0" />
        <mxCell id="1" parent="0" />
        <mxCell id="5Cf9vH4vzOKvy5ulrHjL-67" value="sprite info" style="edgeStyle=orthogonalEdgeStyle;rounded=0;sketch=0;orthogonalLoop=1;jettySize=auto;html=1;shadow=0;startArrow=none;startFill=0;verticalAlign=middle;spacingBottom=8;" parent="1" source="5Cf9vH4vzOKvy5ulrHjL-41" target="5Cf9vH4vzOKvy5ulrHjL-53" edge="1">
          <mxGeometry relative="1" as="geometry">
            <mxPoint as="offset" />
          </mxGeometry>
        </mxCell>
        <mxCell id="5Cf9vH4vzOKvy5ulrHjL-75" value="TMM" style="edgeStyle=orthogonalEdgeStyle;shape=flexArrow;rounded=0;sketch=0;orthogonalLoop=1;jettySize=auto;html=1;shadow=0;startArrow=block;startFill=0;endArrow=none;endFill=0;" parent="1" source="5Cf9vH4vzOKvy5ulrHjL-53" target="5Cf9vH4vzOKvy5ulrHjL-40" edge="1">
          <mxGeometry relative="1" as="geometry">
            <Array as="points">
              <mxPoint x="350" y="180" />
              <mxPoint x="350" y="180" />
            </Array>
            <mxPoint as="offset" />
          </mxGeometry>
        </mxCell>
        <mxCell id="5Cf9vH4vzOKvy5ulrHjL-41" value="Background sprite info" style="rounded=0;whiteSpace=wrap;html=1;" parent="1" vertex="1">
          <mxGeometry x="240" y="40" width="80" height="80" as="geometry" />
        </mxCell>
        <mxCell id="5Cf9vH4vzOKvy5ulrHjL-65" value="sprite info" style="edgeStyle=orthogonalEdgeStyle;rounded=0;sketch=0;orthogonalLoop=1;jettySize=auto;html=1;shadow=0;startArrow=none;startFill=0;verticalAlign=middle;spacingBottom=8;" parent="1" source="5Cf9vH4vzOKvy5ulrHjL-43" target="5Cf9vH4vzOKvy5ulrHjL-57" edge="1">
          <mxGeometry x="0.5" relative="1" as="geometry">
            <mxPoint as="offset" />
          </mxGeometry>
        </mxCell>
        <mxCell id="5Cf9vH4vzOKvy5ulrHjL-73" value="TMM" style="edgeStyle=orthogonalEdgeStyle;rounded=0;sketch=0;orthogonalLoop=1;jettySize=auto;html=1;shadow=0;startArrow=none;startFill=0;shape=flexArrow;dashed=1;" parent="1" source="NryI2nnm7culigx5ueKd-3" target="5Cf9vH4vzOKvy5ulrHjL-57" edge="1">
          <mxGeometry relative="1" as="geometry">
            <Array as="points">
              <mxPoint x="110" y="180" />
              <mxPoint x="110" y="180" />
            </Array>
            <mxPoint x="370" y="-20" as="sourcePoint" />
          </mxGeometry>
        </mxCell>
        <mxCell id="5Cf9vH4vzOKvy5ulrHjL-43" value="Foreground sprite info" style="rounded=0;whiteSpace=wrap;html=1;" parent="1" vertex="1">
          <mxGeometry x="150" y="40" width="80" height="40" as="geometry" />
        </mxCell>
        <mxCell id="5Cf9vH4vzOKvy5ulrHjL-70" value="global palette index" style="edgeStyle=orthogonalEdgeStyle;rounded=0;sketch=0;orthogonalLoop=1;jettySize=auto;html=1;shadow=0;startArrow=none;startFill=0;" parent="1" source="5Cf9vH4vzOKvy5ulrHjL-44" target="5Cf9vH4vzOKvy5ulrHjL-48" edge="1">
          <mxGeometry relative="1" as="geometry">
            <mxPoint as="offset" />
          </mxGeometry>
        </mxCell>
        <mxCell id="5Cf9vH4vzOKvy5ulrHjL-44" value="Compositor" style="rounded=0;whiteSpace=wrap;html=1;" parent="1" vertex="1">
          <mxGeometry x="240" y="240" width="80" height="40" as="geometry" />
        </mxCell>
        <mxCell id="rq75ds9a1dO3QxOp4wKL-1" style="edgeStyle=orthogonalEdgeStyle;rounded=0;sketch=0;orthogonalLoop=1;jettySize=auto;html=1;shadow=0;startArrow=none;startFill=0;" parent="1" source="5Cf9vH4vzOKvy5ulrHjL-45" target="5Cf9vH4vzOKvy5ulrHjL-43" edge="1">
          <mxGeometry relative="1" as="geometry">
            <Array as="points">
              <mxPoint x="260" y="480" />
              <mxPoint x="20" y="480" />
              <mxPoint x="20" y="20" />
              <mxPoint x="190" y="20" />
            </Array>
          </mxGeometry>
        </mxCell>
        <mxCell id="rq75ds9a1dO3QxOp4wKL-2" style="edgeStyle=orthogonalEdgeStyle;rounded=0;sketch=0;orthogonalLoop=1;jettySize=auto;html=1;shadow=0;startArrow=none;startFill=0;" parent="1" source="5Cf9vH4vzOKvy5ulrHjL-45" target="5Cf9vH4vzOKvy5ulrHjL-41" edge="1">
          <mxGeometry relative="1" as="geometry">
            <Array as="points">
              <mxPoint x="260" y="480" />
              <mxPoint x="20" y="480" />
              <mxPoint x="20" y="20" />
              <mxPoint x="280" y="20" />
            </Array>
          </mxGeometry>
        </mxCell>
        <mxCell id="rq75ds9a1dO3QxOp4wKL-5" value="VGA signal" style="edgeStyle=orthogonalEdgeStyle;rounded=0;sketch=0;orthogonalLoop=1;jettySize=auto;html=1;shadow=0;startArrow=none;startFill=0;" parent="1" source="5Cf9vH4vzOKvy5ulrHjL-45" target="9KQGuUNWAf0LBUd-UVnW-1" edge="1">
          <mxGeometry relative="1" as="geometry">
            <mxPoint x="300" y="500" as="targetPoint" />
            <Array as="points">
              <mxPoint x="300" y="500" />
              <mxPoint x="300" y="500" />
            </Array>
            <mxPoint as="offset" />
          </mxGeometry>
        </mxCell>
        <mxCell id="5Cf9vH4vzOKvy5ulrHjL-45" value="tiny VGA signal generator" style="rounded=0;whiteSpace=wrap;html=1;" parent="1" vertex="1">
          <mxGeometry x="240" y="400" width="80" height="60" as="geometry" />
        </mxCell>
        <mxCell id="5Cf9vH4vzOKvy5ulrHjL-71" style="edgeStyle=orthogonalEdgeStyle;rounded=0;sketch=0;orthogonalLoop=1;jettySize=auto;html=1;shadow=0;startArrow=none;startFill=0;" parent="1" source="5Cf9vH4vzOKvy5ulrHjL-48" target="5Cf9vH4vzOKvy5ulrHjL-45" edge="1">
          <mxGeometry relative="1" as="geometry" />
        </mxCell>
        <mxCell id="5Cf9vH4vzOKvy5ulrHjL-72" value="rgb value" style="edgeStyle=orthogonalEdgeStyle;rounded=0;sketch=0;orthogonalLoop=1;jettySize=auto;html=1;shadow=0;startArrow=none;startFill=0;" parent="1" source="5Cf9vH4vzOKvy5ulrHjL-48" target="5Cf9vH4vzOKvy5ulrHjL-45" edge="1">
          <mxGeometry relative="1" as="geometry">
            <mxPoint as="offset" />
          </mxGeometry>
        </mxCell>
        <mxCell id="5Cf9vH4vzOKvy5ulrHjL-81" value="PAL" style="edgeStyle=orthogonalEdgeStyle;shape=flexArrow;rounded=0;sketch=0;orthogonalLoop=1;jettySize=auto;html=1;shadow=0;startArrow=block;startFill=0;" parent="1" source="5Cf9vH4vzOKvy5ulrHjL-48" target="5Cf9vH4vzOKvy5ulrHjL-40" edge="1">
          <mxGeometry relative="1" as="geometry">
            <Array as="points">
              <mxPoint x="360" y="340" />
              <mxPoint x="360" y="340" />
            </Array>
          </mxGeometry>
        </mxCell>
        <mxCell id="5Cf9vH4vzOKvy5ulrHjL-48" value="Palette lookup" style="rounded=0;whiteSpace=wrap;html=1;" parent="1" vertex="1">
          <mxGeometry x="240" y="320" width="80" height="40" as="geometry" />
        </mxCell>
        <mxCell id="5Cf9vH4vzOKvy5ulrHjL-69" style="edgeStyle=orthogonalEdgeStyle;rounded=0;sketch=0;orthogonalLoop=1;jettySize=auto;html=1;shadow=0;startArrow=none;startFill=0;" parent="1" source="5Cf9vH4vzOKvy5ulrHjL-53" target="5Cf9vH4vzOKvy5ulrHjL-44" edge="1">
          <mxGeometry relative="1" as="geometry" />
        </mxCell>
        <mxCell id="5Cf9vH4vzOKvy5ulrHjL-79" value="BAM" style="edgeStyle=orthogonalEdgeStyle;shape=flexArrow;rounded=0;sketch=0;orthogonalLoop=1;jettySize=auto;html=1;shadow=0;startArrow=none;startFill=0;" parent="1" source="5Cf9vH4vzOKvy5ulrHjL-40" target="5Cf9vH4vzOKvy5ulrHjL-41" edge="1">
          <mxGeometry relative="1" as="geometry">
            <Array as="points">
              <mxPoint x="340" y="60" />
              <mxPoint x="340" y="60" />
            </Array>
          </mxGeometry>
        </mxCell>
        <mxCell id="5Cf9vH4vzOKvy5ulrHjL-80" value="AUX" style="edgeStyle=orthogonalEdgeStyle;shape=flexArrow;rounded=0;sketch=0;orthogonalLoop=1;jettySize=auto;html=1;shadow=0;startArrow=block;startFill=0;" parent="1" source="5Cf9vH4vzOKvy5ulrHjL-41" target="5Cf9vH4vzOKvy5ulrHjL-40" edge="1">
          <mxGeometry relative="1" as="geometry">
            <Array as="points">
              <mxPoint x="360" y="100" />
              <mxPoint x="360" y="100" />
            </Array>
          </mxGeometry>
        </mxCell>
        <mxCell id="5Cf9vH4vzOKvy5ulrHjL-53" value="Sprite render" style="rounded=0;whiteSpace=wrap;html=1;" parent="1" vertex="1">
          <mxGeometry x="240" y="160" width="80" height="40" as="geometry" />
        </mxCell>
        <mxCell id="5Cf9vH4vzOKvy5ulrHjL-68" value="pixel data" style="edgeStyle=orthogonalEdgeStyle;rounded=0;sketch=0;orthogonalLoop=1;jettySize=auto;html=1;shadow=0;startArrow=none;startFill=0;" parent="1" source="5Cf9vH4vzOKvy5ulrHjL-57" target="5Cf9vH4vzOKvy5ulrHjL-44" edge="1">
          <mxGeometry relative="1" as="geometry">
            <Array as="points">
              <mxPoint x="220" y="220" />
              <mxPoint x="280" y="220" />
            </Array>
            <mxPoint as="offset" />
          </mxGeometry>
        </mxCell>
        <mxCell id="5Cf9vH4vzOKvy5ulrHjL-74" value="FAM" style="edgeStyle=orthogonalEdgeStyle;shape=flexArrow;rounded=0;sketch=0;orthogonalLoop=1;jettySize=auto;html=1;shadow=0;startArrow=block;startFill=0;" parent="1" source="5Cf9vH4vzOKvy5ulrHjL-43" target="NryI2nnm7culigx5ueKd-3" edge="1">
          <mxGeometry relative="1" as="geometry">
            <Array as="points">
              <mxPoint x="90" y="60" />
              <mxPoint x="90" y="60" />
            </Array>
            <mxPoint x="370" y="-100" as="targetPoint" />
          </mxGeometry>
        </mxCell>
        <mxCell id="5Cf9vH4vzOKvy5ulrHjL-57" value="Sprite render" style="rounded=0;whiteSpace=wrap;html=1;" parent="1" vertex="1">
          <mxGeometry x="150" y="160" width="80" height="40" as="geometry" />
        </mxCell>
        <mxCell id="5Cf9vH4vzOKvy5ulrHjL-76" value="TMM" style="edgeStyle=orthogonalEdgeStyle;shape=flexArrow;rounded=0;sketch=0;orthogonalLoop=1;jettySize=auto;html=1;shadow=0;startArrow=block;startFill=0;endArrow=none;endFill=0;" parent="1" source="5Cf9vH4vzOKvy5ulrHjL-61" target="5Cf9vH4vzOKvy5ulrHjL-40" edge="1">
          <mxGeometry relative="1" as="geometry">
            <Array as="points">
              <mxPoint x="490" y="180" />
              <mxPoint x="490" y="180" />
            </Array>
          </mxGeometry>
        </mxCell>
        <mxCell id="5Cf9vH4vzOKvy5ulrHjL-61" value="Tilemap memory" style="rounded=0;whiteSpace=wrap;html=1;" parent="1" vertex="1">
          <mxGeometry x="510" y="160" width="120" height="40" as="geometry" />
        </mxCell>
        <mxCell id="5Cf9vH4vzOKvy5ulrHjL-78" value="BAM" style="edgeStyle=orthogonalEdgeStyle;shape=flexArrow;rounded=0;sketch=0;orthogonalLoop=1;jettySize=auto;html=1;shadow=0;startArrow=none;startFill=0;" parent="1" source="5Cf9vH4vzOKvy5ulrHjL-40" target="5Cf9vH4vzOKvy5ulrHjL-63" edge="1">
          <mxGeometry relative="1" as="geometry">
            <Array as="points">
              <mxPoint x="460" y="60" />
              <mxPoint x="460" y="60" />
            </Array>
          </mxGeometry>
        </mxCell>
        <mxCell id="5Cf9vH4vzOKvy5ulrHjL-63" value="Background attribute memory" style="rounded=0;whiteSpace=wrap;html=1;" parent="1" vertex="1">
          <mxGeometry x="510" y="40" width="120" height="40" as="geometry" />
        </mxCell>
        <mxCell id="rq75ds9a1dO3QxOp4wKL-3" value="screen position" style="text;html=1;strokeColor=none;fillColor=none;align=center;verticalAlign=middle;whiteSpace=wrap;rounded=0;labelBackgroundColor=default;" parent="1" vertex="1">
          <mxGeometry x="160" y="470" width="100" height="20" as="geometry" />
        </mxCell>
        <mxCell id="5Cf9vH4vzOKvy5ulrHjL-40" value="PPU RAM bus" style="rounded=0;whiteSpace=wrap;html=1;verticalAlign=top;horizontal=0;direction=west;align=right;spacingTop=0;spacingRight=8;" parent="1" vertex="1">
          <mxGeometry x="400" y="40" width="30" height="320" as="geometry" />
        </mxCell>
        <mxCell id="NryI2nnm7culigx5ueKd-3" value="PPU RAM bus" style="rounded=0;whiteSpace=wrap;html=1;verticalAlign=top;horizontal=0;direction=west;align=right;spacingTop=0;spacingRight=8;" parent="1" vertex="1">
          <mxGeometry x="40" y="40" width="30" height="160" as="geometry" />
        </mxCell>
        <mxCell id="9KQGuUNWAf0LBUd-UVnW-1" value="native VGA signal generator" style="rounded=0;whiteSpace=wrap;html=1;" parent="1" vertex="1">
          <mxGeometry x="240" y="510" width="80" height="50" as="geometry" />
        </mxCell>
        <mxCell id="9KQGuUNWAf0LBUd-UVnW-2" value="VGA signal" style="edgeStyle=orthogonalEdgeStyle;rounded=0;sketch=0;orthogonalLoop=1;jettySize=auto;html=1;shadow=0;startArrow=none;startFill=0;" parent="1" source="9KQGuUNWAf0LBUd-UVnW-1" edge="1">
          <mxGeometry relative="1" as="geometry">
            <mxPoint x="280" y="600" as="targetPoint" />
            <Array as="points">
              <mxPoint x="280" y="590" />
              <mxPoint x="280" y="590" />
            </Array>
            <mxPoint as="offset" />
            <mxPoint x="309.9999999999999" y="560" as="sourcePoint" />
          </mxGeometry>
        </mxCell>
      </root>
    </mxGraphModel>
  </diagram>
  <diagram id="1ySgP4OewCsUoPnmkRD4" name="display">
    <mxGraphModel dx="583" dy="751" grid="1" gridSize="10" guides="1" tooltips="1" connect="1" arrows="1" fold="1" page="1" pageScale="1" pageWidth="850" pageHeight="1100" math="0" shadow="0">
      <root>
        <mxCell id="0" />
        <mxCell id="1" parent="0" />
        <mxCell id="yaHYUMDSwxGPtUMtmVGa-2" value="" style="group" parent="1" vertex="1" connectable="0">
          <mxGeometry width="330" height="250" as="geometry" />
        </mxCell>
        <mxCell id="E4kf0u5coX9S4s8HQT6Q-2" value="Background canvas&lt;br&gt;(640x480)" style="rounded=0;whiteSpace=wrap;html=1;verticalAlign=bottom;spacing=10;" parent="yaHYUMDSwxGPtUMtmVGa-2" vertex="1">
          <mxGeometry x="10" y="10" width="320" height="240" as="geometry" />
        </mxCell>
        <mxCell id="E4kf0u5coX9S4s8HQT6Q-12" value="BAM (0,0)" style="shape=waypoint;sketch=0;fillStyle=solid;size=6;pointerEvents=1;points=[];fillColor=none;resizable=0;rotatable=0;perimeter=centerPerimeter;snapToPoint=1;dashed=1;verticalAlign=bottom;align=left;labelPosition=right;verticalLabelPosition=middle;spacing=-7;" parent="yaHYUMDSwxGPtUMtmVGa-2" vertex="1">
          <mxGeometry width="20" height="20" as="geometry" />
        </mxCell>
        <mxCell id="yaHYUMDSwxGPtUMtmVGa-1" value="" style="group" parent="yaHYUMDSwxGPtUMtmVGa-2" vertex="1" connectable="0">
          <mxGeometry x="110" y="60" width="170" height="130" as="geometry" />
        </mxCell>
        <mxCell id="E4kf0u5coX9S4s8HQT6Q-1" value="PPU Viewport&lt;br&gt;(320x240)" style="rounded=0;whiteSpace=wrap;html=1;fillColor=none;dashed=1;" parent="yaHYUMDSwxGPtUMtmVGa-1" vertex="1">
          <mxGeometry x="10" y="10" width="160" height="120" as="geometry" />
        </mxCell>
        <mxCell id="E4kf0u5coX9S4s8HQT6Q-13" value="screen (0,0)" style="shape=waypoint;sketch=0;fillStyle=solid;size=6;pointerEvents=1;points=[];fillColor=none;resizable=0;rotatable=0;perimeter=centerPerimeter;snapToPoint=1;dashed=1;verticalAlign=bottom;align=left;labelPosition=right;verticalLabelPosition=middle;spacing=-7;" parent="yaHYUMDSwxGPtUMtmVGa-1" vertex="1">
          <mxGeometry width="20" height="20" as="geometry" />
        </mxCell>
        <mxCell id="E4kf0u5coX9S4s8HQT6Q-3" value="AUX Y" style="edgeStyle=elbowEdgeStyle;rounded=0;orthogonalLoop=1;jettySize=auto;html=1;entryX=0.5;entryY=0;entryDx=0;entryDy=0;" parent="1" source="E4kf0u5coX9S4s8HQT6Q-10" target="E4kf0u5coX9S4s8HQT6Q-1" edge="1">
          <mxGeometry relative="1" as="geometry" />
        </mxCell>
        <mxCell id="E4kf0u5coX9S4s8HQT6Q-11" value="AUX X" style="edgeStyle=elbowEdgeStyle;rounded=0;orthogonalLoop=1;jettySize=auto;html=1;entryX=0;entryY=0.5;entryDx=0;entryDy=0;elbow=vertical;" parent="1" source="E4kf0u5coX9S4s8HQT6Q-8" target="E4kf0u5coX9S4s8HQT6Q-1" edge="1">
          <mxGeometry relative="1" as="geometry" />
        </mxCell>
        <mxCell id="E4kf0u5coX9S4s8HQT6Q-8" value="" style="rounded=0;whiteSpace=wrap;html=1;dashed=1;fillColor=none;strokeColor=none;" parent="1" vertex="1">
          <mxGeometry y="10" width="10" height="240" as="geometry" />
        </mxCell>
        <mxCell id="E4kf0u5coX9S4s8HQT6Q-10" value="" style="rounded=0;whiteSpace=wrap;html=1;dashed=1;fillColor=none;strokeColor=none;" parent="1" vertex="1">
          <mxGeometry x="10" width="320" height="10" as="geometry" />
        </mxCell>
      </root>
    </mxGraphModel>
  </diagram>
  <diagram id="xwm_nTvbWLU7bshfNvv3" name="pipeline">
    <mxGraphModel dx="1748" dy="2253" grid="1" gridSize="10" guides="1" tooltips="1" connect="1" arrows="1" fold="1" page="1" pageScale="1" pageWidth="850" pageHeight="1100" math="0" shadow="0">
      <root>
        <mxCell id="0" />
        <mxCell id="1" parent="0" />
        <mxCell id="nWC_gr3oSsyCH89HzhcY-20" value="" style="endArrow=none;html=1;rounded=0;" parent="1" edge="1">
          <mxGeometry width="50" height="50" relative="1" as="geometry">
            <mxPoint x="100" y="190" as="sourcePoint" />
            <mxPoint x="100" as="targetPoint" />
          </mxGeometry>
        </mxCell>
        <mxCell id="nWC_gr3oSsyCH89HzhcY-2" value="" style="endArrow=none;dashed=1;html=1;rounded=0;opacity=50;" parent="1" edge="1">
          <mxGeometry width="50" height="50" relative="1" as="geometry">
            <mxPoint x="180" y="190" as="sourcePoint" />
            <mxPoint x="180" as="targetPoint" />
          </mxGeometry>
        </mxCell>
        <mxCell id="nWC_gr3oSsyCH89HzhcY-3" value="" style="endArrow=none;dashed=1;html=1;rounded=0;opacity=50;" parent="1" edge="1">
          <mxGeometry width="50" height="50" relative="1" as="geometry">
            <mxPoint x="260" y="190" as="sourcePoint" />
            <mxPoint x="260" as="targetPoint" />
          </mxGeometry>
        </mxCell>
        <mxCell id="nWC_gr3oSsyCH89HzhcY-4" value="" style="endArrow=none;dashed=1;html=1;rounded=0;opacity=50;" parent="1" edge="1">
          <mxGeometry width="50" height="50" relative="1" as="geometry">
            <mxPoint x="340" y="190" as="sourcePoint" />
            <mxPoint x="340" as="targetPoint" />
          </mxGeometry>
        </mxCell>
        <mxCell id="nWC_gr3oSsyCH89HzhcY-5" value="" style="endArrow=none;dashed=1;html=1;rounded=0;opacity=50;" parent="1" edge="1">
          <mxGeometry width="50" height="50" relative="1" as="geometry">
            <mxPoint x="419.99999999999994" y="190" as="sourcePoint" />
            <mxPoint x="419.99999999999994" as="targetPoint" />
          </mxGeometry>
        </mxCell>
        <mxCell id="nWC_gr3oSsyCH89HzhcY-6" value="" style="endArrow=none;dashed=1;html=1;rounded=0;opacity=50;" parent="1" edge="1">
          <mxGeometry width="50" height="50" relative="1" as="geometry">
            <mxPoint x="499.99999999999994" y="190" as="sourcePoint" />
            <mxPoint x="499.99999999999994" as="targetPoint" />
          </mxGeometry>
        </mxCell>
        <mxCell id="nWC_gr3oSsyCH89HzhcY-7" value="" style="endArrow=none;dashed=1;html=1;rounded=0;opacity=50;" parent="1" edge="1">
          <mxGeometry x="820" y="190" width="50" height="50" relative="1" as="geometry">
            <mxPoint x="580" y="190" as="sourcePoint" />
            <mxPoint x="580" as="targetPoint" />
          </mxGeometry>
        </mxCell>
        <mxCell id="nWC_gr3oSsyCH89HzhcY-8" value="" style="endArrow=none;dashed=1;html=1;rounded=0;opacity=50;" parent="1" edge="1">
          <mxGeometry width="50" height="50" relative="1" as="geometry">
            <mxPoint x="659.9999999999999" y="190" as="sourcePoint" />
            <mxPoint x="659.9999999999999" as="targetPoint" />
          </mxGeometry>
        </mxCell>
        <mxCell id="nWC_gr3oSsyCH89HzhcY-9" value="" style="endArrow=none;dashed=1;html=1;rounded=0;opacity=50;" parent="1" edge="1">
          <mxGeometry width="50" height="50" relative="1" as="geometry">
            <mxPoint x="739.9999999999999" y="190" as="sourcePoint" />
            <mxPoint x="739.9999999999999" as="targetPoint" />
          </mxGeometry>
        </mxCell>
        <mxCell id="01XsuYDIXnxnY-9CK8Sb-1" value="" style="endArrow=none;dashed=1;html=1;rounded=0;opacity=50;" parent="1" edge="1">
          <mxGeometry width="50" height="50" relative="1" as="geometry">
            <mxPoint x="819.9999999999999" y="190" as="sourcePoint" />
            <mxPoint x="819.9999999999999" as="targetPoint" />
          </mxGeometry>
        </mxCell>
        <mxCell id="01XsuYDIXnxnY-9CK8Sb-2" value="" style="endArrow=none;dashed=1;html=1;rounded=0;opacity=50;" parent="1" edge="1">
          <mxGeometry width="50" height="50" relative="1" as="geometry">
            <mxPoint x="899.9999999999999" y="190" as="sourcePoint" />
            <mxPoint x="899.9999999999999" as="targetPoint" />
          </mxGeometry>
        </mxCell>
        <mxCell id="KaSe4TMXn0dfQqhvJRLf-13" value="" style="endArrow=none;dashed=1;html=1;rounded=0;opacity=50;" parent="1" edge="1">
          <mxGeometry width="50" height="50" relative="1" as="geometry">
            <mxPoint x="979.17" y="190" as="sourcePoint" />
            <mxPoint x="979.17" as="targetPoint" />
          </mxGeometry>
        </mxCell>
        <mxCell id="IbhH1XF3vQQQu7d6qqs4-2" value="" style="endArrow=none;dashed=1;html=1;rounded=0;opacity=50;" parent="1" edge="1">
          <mxGeometry width="50" height="50" relative="1" as="geometry">
            <mxPoint x="1059.17" y="190" as="sourcePoint" />
            <mxPoint x="1059.17" as="targetPoint" />
          </mxGeometry>
        </mxCell>
        <mxCell id="IbhH1XF3vQQQu7d6qqs4-4" value="" style="endArrow=none;dashed=1;html=1;rounded=0;opacity=50;" parent="1" edge="1">
          <mxGeometry width="50" height="50" relative="1" as="geometry">
            <mxPoint x="1139.17" y="190" as="sourcePoint" />
            <mxPoint x="1139.17" as="targetPoint" />
          </mxGeometry>
        </mxCell>
        <mxCell id="nWC_gr3oSsyCH89HzhcY-21" value="" style="endArrow=none;html=1;rounded=0;exitX=1;exitY=1;exitDx=0;exitDy=0;" parent="1" source="IbhH1XF3vQQQu7d6qqs4-3" edge="1">
          <mxGeometry width="50" height="50" relative="1" as="geometry">
            <mxPoint x="1070" y="30" as="sourcePoint" />
            <mxPoint x="100" y="20" as="targetPoint" />
          </mxGeometry>
        </mxCell>
        <mxCell id="nWC_gr3oSsyCH89HzhcY-26" value="ppu_sprite_bg" style="text;html=1;strokeColor=none;fillColor=none;align=right;verticalAlign=middle;whiteSpace=wrap;rounded=0;spacingRight=2;" parent="1" vertex="1">
          <mxGeometry y="30" width="100" height="30" as="geometry" />
        </mxCell>
        <mxCell id="nWC_gr3oSsyCH89HzhcY-10" value="0" style="text;html=1;strokeColor=none;fillColor=none;align=center;verticalAlign=middle;whiteSpace=wrap;rounded=0;" parent="1" vertex="1">
          <mxGeometry x="100" width="80" height="20" as="geometry" />
        </mxCell>
        <mxCell id="nWC_gr3oSsyCH89HzhcY-12" value="1" style="text;html=1;strokeColor=none;fillColor=none;align=center;verticalAlign=middle;whiteSpace=wrap;rounded=0;" parent="1" vertex="1">
          <mxGeometry x="180" width="80" height="20" as="geometry" />
        </mxCell>
        <mxCell id="nWC_gr3oSsyCH89HzhcY-13" value="2" style="text;html=1;strokeColor=none;fillColor=none;align=center;verticalAlign=middle;whiteSpace=wrap;rounded=0;" parent="1" vertex="1">
          <mxGeometry x="260" width="80" height="20" as="geometry" />
        </mxCell>
        <mxCell id="nWC_gr3oSsyCH89HzhcY-14" value="3" style="text;html=1;strokeColor=none;fillColor=none;align=center;verticalAlign=middle;whiteSpace=wrap;rounded=0;" parent="1" vertex="1">
          <mxGeometry x="340" width="80" height="20" as="geometry" />
        </mxCell>
        <mxCell id="nWC_gr3oSsyCH89HzhcY-15" value="4" style="text;html=1;strokeColor=none;fillColor=none;align=center;verticalAlign=middle;whiteSpace=wrap;rounded=0;" parent="1" vertex="1">
          <mxGeometry x="420" width="80" height="20" as="geometry" />
        </mxCell>
        <mxCell id="nWC_gr3oSsyCH89HzhcY-16" value="5" style="text;html=1;strokeColor=none;fillColor=none;align=center;verticalAlign=middle;whiteSpace=wrap;rounded=0;" parent="1" vertex="1">
          <mxGeometry x="500" width="80" height="20" as="geometry" />
        </mxCell>
        <mxCell id="nWC_gr3oSsyCH89HzhcY-17" value="6" style="text;html=1;strokeColor=none;fillColor=none;align=center;verticalAlign=middle;whiteSpace=wrap;rounded=0;" parent="1" vertex="1">
          <mxGeometry x="580" width="80" height="20" as="geometry" />
        </mxCell>
        <mxCell id="nWC_gr3oSsyCH89HzhcY-18" value="7" style="text;html=1;strokeColor=none;fillColor=none;align=center;verticalAlign=middle;whiteSpace=wrap;rounded=0;" parent="1" vertex="1">
          <mxGeometry x="660" width="80" height="20" as="geometry" />
        </mxCell>
        <mxCell id="nWC_gr3oSsyCH89HzhcY-28" value="BAM address" style="shape=hexagon;perimeter=hexagonPerimeter2;whiteSpace=wrap;html=1;fixedSize=1;size=10;fillStyle=auto;rounded=0;shadow=0;fontStyle=4" parent="1" vertex="1">
          <mxGeometry x="180" y="30" width="80" height="30" as="geometry" />
        </mxCell>
        <mxCell id="nWC_gr3oSsyCH89HzhcY-30" value="ppu_sprite_fg" style="text;html=1;strokeColor=none;fillColor=none;align=right;verticalAlign=middle;whiteSpace=wrap;rounded=0;spacingRight=2;" parent="1" vertex="1">
          <mxGeometry y="70" width="100" height="30" as="geometry" />
        </mxCell>
        <mxCell id="nWC_gr3oSsyCH89HzhcY-32" value="TMM address" style="shape=hexagon;perimeter=hexagonPerimeter2;whiteSpace=wrap;html=1;fixedSize=1;size=10;fillStyle=auto;rounded=0;shadow=0;fontStyle=4" parent="1" vertex="1">
          <mxGeometry x="180" y="70" width="80" height="30" as="geometry" />
        </mxCell>
        <mxCell id="nWC_gr3oSsyCH89HzhcY-34" value="clk" style="text;html=1;strokeColor=none;fillColor=none;align=right;verticalAlign=middle;whiteSpace=wrap;rounded=0;spacingRight=2;" parent="1" vertex="1">
          <mxGeometry width="100" height="20" as="geometry" />
        </mxCell>
        <mxCell id="yb7N7GYpCYwOkfcw6fjU-1" value="TMM data" style="shape=hexagon;perimeter=hexagonPerimeter2;whiteSpace=wrap;html=1;fixedSize=1;size=10;" parent="1" vertex="1">
          <mxGeometry x="660" y="30" width="80" height="30" as="geometry" />
        </mxCell>
        <mxCell id="yb7N7GYpCYwOkfcw6fjU-2" value="TMM address" style="shape=hexagon;perimeter=hexagonPerimeter2;whiteSpace=wrap;html=1;fixedSize=1;size=10;fontStyle=4" parent="1" vertex="1">
          <mxGeometry x="580" y="30" width="80" height="30" as="geometry" />
        </mxCell>
        <mxCell id="01XsuYDIXnxnY-9CK8Sb-3" value="8" style="text;html=1;strokeColor=none;fillColor=none;align=center;verticalAlign=middle;whiteSpace=wrap;rounded=0;" parent="1" vertex="1">
          <mxGeometry x="740" width="80" height="20" as="geometry" />
        </mxCell>
        <mxCell id="01XsuYDIXnxnY-9CK8Sb-4" value="9" style="text;html=1;strokeColor=none;fillColor=none;align=center;verticalAlign=middle;whiteSpace=wrap;rounded=0;" parent="1" vertex="1">
          <mxGeometry x="820" width="80" height="20" as="geometry" />
        </mxCell>
        <mxCell id="nWC_gr3oSsyCH89HzhcY-29" value="BAM data" style="shape=hexagon;perimeter=hexagonPerimeter2;whiteSpace=wrap;html=1;fixedSize=1;size=10;" parent="1" vertex="1">
          <mxGeometry x="260" y="30" width="80" height="30" as="geometry" />
        </mxCell>
        <mxCell id="nWC_gr3oSsyCH89HzhcY-33" value="TMM data" style="shape=hexagon;perimeter=hexagonPerimeter2;whiteSpace=wrap;html=1;fixedSize=1;size=10;" parent="1" vertex="1">
          <mxGeometry x="260" y="70" width="80" height="30" as="geometry" />
        </mxCell>
        <mxCell id="01XsuYDIXnxnY-9CK8Sb-6" value="idle" style="shape=hexagon;perimeter=hexagonPerimeter2;whiteSpace=wrap;html=1;fixedSize=1;size=10;opacity=70;dashed=1;textOpacity=70;" parent="1" vertex="1">
          <mxGeometry x="100" y="30" width="80" height="30" as="geometry" />
        </mxCell>
        <mxCell id="h9nelDEgbrpPscfxySUE-6" value="idle" style="shape=hexagon;perimeter=hexagonPerimeter2;whiteSpace=wrap;html=1;fixedSize=1;size=10;opacity=70;dashed=1;textOpacity=70;" parent="1" vertex="1">
          <mxGeometry x="740" y="30" width="80" height="30" as="geometry" />
        </mxCell>
        <mxCell id="dLFhgi6bJzkJ-L9wjGwB-1" value="HIT (inaccurate)" style="shape=hexagon;perimeter=hexagonPerimeter2;whiteSpace=wrap;html=1;fixedSize=1;size=10;fillStyle=auto;rounded=0;shadow=0;fontStyle=4" parent="1" vertex="1">
          <mxGeometry x="100" y="110" width="240" height="30" as="geometry" />
        </mxCell>
        <mxCell id="dLFhgi6bJzkJ-L9wjGwB-5" value="idle" style="shape=hexagon;perimeter=hexagonPerimeter2;whiteSpace=wrap;html=1;fixedSize=1;size=10;opacity=70;dashed=1;textOpacity=70;" parent="1" vertex="1">
          <mxGeometry x="100" y="70" width="80" height="30" as="geometry" />
        </mxCell>
        <mxCell id="dLFhgi6bJzkJ-L9wjGwB-6" value="ppu_sprite_fg" style="text;html=1;strokeColor=none;fillColor=none;align=right;verticalAlign=middle;whiteSpace=wrap;rounded=0;spacingRight=2;" parent="1" vertex="1">
          <mxGeometry y="110" width="100" height="30" as="geometry" />
        </mxCell>
        <mxCell id="dLFhgi6bJzkJ-L9wjGwB-8" value="HIT (real)" style="shape=hexagon;perimeter=hexagonPerimeter2;whiteSpace=wrap;html=1;fixedSize=1;size=10;fillStyle=auto;rounded=0;shadow=0;fontStyle=4" parent="1" vertex="1">
          <mxGeometry x="340" y="110" width="80" height="30" as="geometry" />
        </mxCell>
        <mxCell id="KaSe4TMXn0dfQqhvJRLf-5" value="10" style="text;html=1;strokeColor=none;fillColor=none;align=center;verticalAlign=middle;whiteSpace=wrap;rounded=0;" parent="1" vertex="1">
          <mxGeometry x="900" width="80" height="20" as="geometry" />
        </mxCell>
        <mxCell id="KaSe4TMXn0dfQqhvJRLf-18" value="ppu_dispctl" style="text;html=1;strokeColor=none;fillColor=none;align=right;verticalAlign=middle;whiteSpace=wrap;rounded=0;spacingRight=2;" parent="1" vertex="1">
          <mxGeometry y="150" width="100" height="30" as="geometry" />
        </mxCell>
        <mxCell id="KaSe4TMXn0dfQqhvJRLf-19" value="scanline buffer write enable" style="shape=hexagon;perimeter=hexagonPerimeter2;whiteSpace=wrap;html=1;fixedSize=1;size=10;fillStyle=auto;rounded=0;shadow=0;fontStyle=4" parent="1" vertex="1">
          <mxGeometry x="980" y="150" width="160" height="30" as="geometry" />
        </mxCell>
        <mxCell id="Ze_sJlmgsXVQ9VDBg_TK-1" value="idle" style="shape=hexagon;perimeter=hexagonPerimeter2;whiteSpace=wrap;html=1;fixedSize=1;size=10;opacity=70;dashed=1;textOpacity=70;" parent="1" vertex="1">
          <mxGeometry x="340" y="70" width="80" height="30" as="geometry" />
        </mxCell>
        <mxCell id="3W_A2za98pmYs2U0zmyX-1" value="idle" style="shape=hexagon;perimeter=hexagonPerimeter2;whiteSpace=wrap;html=1;fixedSize=1;size=10;opacity=70;dashed=1;textOpacity=70;" parent="1" vertex="1">
          <mxGeometry x="340" y="30" width="80" height="30" as="geometry" />
        </mxCell>
        <mxCell id="IbhH1XF3vQQQu7d6qqs4-1" value="11" style="text;html=1;strokeColor=none;fillColor=none;align=center;verticalAlign=middle;whiteSpace=wrap;rounded=0;" parent="1" vertex="1">
          <mxGeometry x="980" width="80" height="20" as="geometry" />
        </mxCell>
        <mxCell id="IbhH1XF3vQQQu7d6qqs4-3" value="12" style="text;html=1;strokeColor=none;fillColor=none;align=center;verticalAlign=middle;whiteSpace=wrap;rounded=0;" parent="1" vertex="1">
          <mxGeometry x="1060" width="80" height="20" as="geometry" />
        </mxCell>
      </root>
    </mxGraphModel>
  </diagram>
</mxfile>
